<?xml version="1.0" encoding="UTF-8" standalone="no"?><svg xmlns="http://www.w3.org/2000/svg" xmlns:xlink="http://www.w3.org/1999/xlink" contentScriptType="application/ecmascript" contentStyleType="text/css" height="837px" preserveAspectRatio="none" style="width:799px;height:837px;" version="1.1" viewBox="0 0 799 837" width="799px" zoomAndPan="magnify"><defs><filter height="300%" id="f13nz3ho0ih935" width="300%" x="-1" y="-1"><feGaussianBlur result="blurOut" stdDeviation="2.0"/><feColorMatrix in="blurOut" result="blurOut2" type="matrix" values="0 0 0 0 0 0 0 0 0 0 0 0 0 0 0 0 0 0 .4 0"/><feOffset dx="4.0" dy="4.0" in="blurOut2" result="blurOut3"/><feBlend in="SourceGraphic" in2="blurOut3" mode="normal"/></filter></defs><g><rect fill="#FFFFFF" filter="url(#f13nz3ho0ih935)" height="281.7949" style="stroke: #000000; stroke-width: 2.0;" width="770.5" x="13" y="103.4883"/><rect fill="#FFFFFF" filter="url(#f13nz3ho0ih935)" height="98.9316" style="stroke: #000000; stroke-width: 2.0;" width="486" x="302.5" y="428.5938"/><line style="stroke: #A80036; stroke-width: 1.0; stroke-dasharray: 5.0,5.0;" x1="41" x2="41" y1="86.4883" y2="750.3887"/><line style="stroke: #A80036; stroke-width: 1.0; stroke-dasharray: 5.0,5.0;" x1="335.5" x2="335.5" y1="86.4883" y2="750.3887"/><line style="stroke: #A80036; stroke-width: 1.0; stroke-dasharray: 5.0,5.0;" x1="627" x2="627" y1="86.4883" y2="750.3887"/><text fill="#000000" font-family="sans-serif" font-size="14" lengthAdjust="spacingAndGlyphs" textLength="31" x="23" y="83.5352">User</text><ellipse cx="41.5" cy="13" fill="#FEFECE" filter="url(#f13nz3ho0ih935)" rx="8" ry="8" style="stroke: #A80036; stroke-width: 2.0;"/><path d="M41.5,21 L41.5,48 M28.5,29 L54.5,29 M41.5,48 L28.5,63 M41.5,48 L54.5,63 " fill="#FEFECE" filter="url(#f13nz3ho0ih935)" style="stroke: #A80036; stroke-width: 2.0;"/><text fill="#000000" font-family="sans-serif" font-size="14" lengthAdjust="spacingAndGlyphs" textLength="31" x="23" y="762.9238">User</text><ellipse cx="41.5" cy="775.877" fill="#FEFECE" filter="url(#f13nz3ho0ih935)" rx="8" ry="8" style="stroke: #A80036; stroke-width: 2.0;"/><path d="M41.5,783.877 L41.5,810.877 M28.5,791.877 L54.5,791.877 M41.5,810.877 L28.5,825.877 M41.5,810.877 L54.5,825.877 " fill="#FEFECE" filter="url(#f13nz3ho0ih935)" style="stroke: #A80036; stroke-width: 2.0;"/><rect fill="#FEFECE" filter="url(#f13nz3ho0ih935)" height="30.4883" style="stroke: #A80036; stroke-width: 1.5;" width="42" x="312.5" y="51"/><text fill="#000000" font-family="sans-serif" font-size="14" lengthAdjust="spacingAndGlyphs" textLength="28" x="319.5" y="71.5352">App</text><rect fill="#FEFECE" filter="url(#f13nz3ho0ih935)" height="30.4883" style="stroke: #A80036; stroke-width: 1.5;" width="42" x="312.5" y="749.3887"/><text fill="#000000" font-family="sans-serif" font-size="14" lengthAdjust="spacingAndGlyphs" textLength="28" x="319.5" y="769.9238">App</text><rect fill="#FEFECE" filter="url(#f13nz3ho0ih935)" height="30.4883" style="stroke: #A80036; stroke-width: 1.5;" width="73" x="589" y="51"/><text fill="#000000" font-family="sans-serif" font-size="14" lengthAdjust="spacingAndGlyphs" textLength="59" x="596" y="71.5352">Nanorep</text><rect fill="#FEFECE" filter="url(#f13nz3ho0ih935)" height="30.4883" style="stroke: #A80036; stroke-width: 1.5;" width="73" x="589" y="749.3887"/><text fill="#000000" font-family="sans-serif" font-size="14" lengthAdjust="spacingAndGlyphs" textLength="59" x="596" y="769.9238">Nanorep</text><rect fill="none" height="281.7949" style="stroke: #000000; stroke-width: 2.0;" width="770.5" x="13" y="103.4883"/><polygon fill="#EEEEEE" points="13,103.4883,142,103.4883,142,110.4883,132,120.4883,13,120.4883,13,103.4883" style="stroke: #000000; stroke-width: 2.0;"/><text fill="#000000" font-family="sans-serif" font-size="13" font-weight="bold" lengthAdjust="spacingAndGlyphs" textLength="84" x="28" y="117.0566">Session Less</text><polygon fill="#A80036" points="323.5,137.7988,333.5,141.7988,323.5,145.7988,327.5,141.7988" style="stroke: #A80036; stroke-width: 1.0;"/><line style="stroke: #A80036; stroke-width: 1.0;" x1="41.5" x2="329.5" y1="141.7988" y2="141.7988"/><text fill="#000000" font-family="sans-serif" font-size="13" lengthAdjust="spacingAndGlyphs" textLength="234" x="48.5" y="137.3672">First launch and select a topic (Label)</text><polygon fill="#A80036" points="615.5,172.1094,625.5,176.1094,615.5,180.1094,619.5,176.1094" style="stroke: #A80036; stroke-width: 1.0;"/><line style="stroke: #A80036; stroke-width: 1.0;" x1="335.5" x2="621.5" y1="176.1094" y2="176.1094"/><text fill="#000000" font-family="sans-serif" font-size="13" lengthAdjust="spacingAndGlyphs" textLength="123" x="342.5" y="171.6777">Fetch configuration</text><polygon fill="#FBFB77" filter="url(#f13nz3ho0ih935)" points="632,155.1094,632,180.1094,764,180.1094,764,165.1094,754,155.1094,632,155.1094" style="stroke: #A80036; stroke-width: 1.0;"/><line style="stroke: #A80036; stroke-width: 1.0;" x1="754" x2="754" y1="155.1094" y2="165.1094"/><line style="stroke: #A80036; stroke-width: 1.0;" x1="764" x2="754" y1="165.1094" y2="165.1094"/><a target="_top" xlink:actuate="onRequest" xlink:href="https://github.com/nanorepsdk/API-Doumentation/wiki/Configuration" xlink:show="new" xlink:title="https://github.com/nanorepsdk/API-Doumentation/wiki/Configuration" xlink:type="simple"><text fill="#0000FF" font-family="sans-serif" font-size="13" lengthAdjust="spacingAndGlyphs" text-decoration="underline" textLength="111" x="638" y="172.6777">Configuration API</text><line style="stroke: #0000FF; stroke-width: 1.0;" x1="638" x2="749" y1="174.6777" y2="174.6777"/></a><polygon fill="#A80036" points="346.5,206.4199,336.5,210.4199,346.5,214.4199,342.5,210.4199" style="stroke: #A80036; stroke-width: 1.0;"/><line style="stroke: #A80036; stroke-width: 1.0; stroke-dasharray: 2.0,2.0;" x1="340.5" x2="626.5" y1="210.4199" y2="210.4199"/><text fill="#000000" font-family="sans-serif" font-size="13" lengthAdjust="spacingAndGlyphs" textLength="256" x="352.5" y="205.9883">Set the UI according to the configuration</text><polygon fill="#A80036" points="615.5,240.7305,625.5,244.7305,615.5,248.7305,619.5,244.7305" style="stroke: #A80036; stroke-width: 1.0;"/><line style="stroke: #A80036; stroke-width: 1.0;" x1="335.5" x2="621.5" y1="244.7305" y2="244.7305"/><text fill="#000000" font-family="sans-serif" font-size="13" lengthAdjust="spacingAndGlyphs" textLength="268" x="342.5" y="240.2988">Fetch FAQs according to the label selected</text><polygon fill="#FBFB77" filter="url(#f13nz3ho0ih935)" points="632,223.7305,632,248.7305,764,248.7305,764,233.7305,754,223.7305,632,223.7305" style="stroke: #A80036; stroke-width: 1.0;"/><line style="stroke: #A80036; stroke-width: 1.0;" x1="754" x2="754" y1="223.7305" y2="233.7305"/><line style="stroke: #A80036; stroke-width: 1.0;" x1="764" x2="754" y1="233.7305" y2="233.7305"/><a target="_top" xlink:actuate="onRequest" xlink:href="https://github.com/nanorepsdk/API-Doumentation/wiki/FAQ-For-Label" xlink:show="new" xlink:title="https://github.com/nanorepsdk/API-Doumentation/wiki/FAQ-For-Label" xlink:type="simple"><text fill="#0000FF" font-family="sans-serif" font-size="13" lengthAdjust="spacingAndGlyphs" text-decoration="underline" textLength="111" x="638" y="241.2988">FAQ For Label API</text><line style="stroke: #0000FF; stroke-width: 1.0;" x1="638" x2="749" y1="243.2988" y2="243.2988"/></a><polygon fill="#A80036" points="346.5,275.041,336.5,279.041,346.5,283.041,342.5,279.041" style="stroke: #A80036; stroke-width: 1.0;"/><line style="stroke: #A80036; stroke-width: 1.0; stroke-dasharray: 2.0,2.0;" x1="340.5" x2="626.5" y1="279.041" y2="279.041"/><text fill="#000000" font-family="sans-serif" font-size="13" lengthAdjust="spacingAndGlyphs" textLength="76" x="352.5" y="274.6094">Presnt FAQs</text><polygon fill="#A80036" points="323.5,304.3516,333.5,308.3516,323.5,312.3516,327.5,308.3516" style="stroke: #A80036; stroke-width: 1.0;"/><line style="stroke: #A80036; stroke-width: 1.0;" x1="41.5" x2="329.5" y1="308.3516" y2="308.3516"/><text fill="#000000" font-family="sans-serif" font-size="13" lengthAdjust="spacingAndGlyphs" textLength="67" x="48.5" y="303.9199">Select FAQ</text><polygon fill="#A80036" points="615.5,338.6621,625.5,342.6621,615.5,346.6621,619.5,342.6621" style="stroke: #A80036; stroke-width: 1.0;"/><line style="stroke: #A80036; stroke-width: 1.0;" x1="335.5" x2="621.5" y1="342.6621" y2="342.6621"/><text fill="#000000" font-family="sans-serif" font-size="13" lengthAdjust="spacingAndGlyphs" textLength="107" x="342.5" y="338.2305">Fetch FAQ article</text><polygon fill="#FBFB77" filter="url(#f13nz3ho0ih935)" points="632,321.6621,632,346.6621,718,346.6621,718,331.6621,708,321.6621,632,321.6621" style="stroke: #A80036; stroke-width: 1.0;"/><line style="stroke: #A80036; stroke-width: 1.0;" x1="708" x2="708" y1="321.6621" y2="331.6621"/><line style="stroke: #A80036; stroke-width: 1.0;" x1="718" x2="708" y1="331.6621" y2="331.6621"/><a target="_top" xlink:actuate="onRequest" xlink:href="https://github.com/nanorepsdk/API-Doumentation/wiki/Article" xlink:show="new" xlink:title="https://github.com/nanorepsdk/API-Doumentation/wiki/Article" xlink:type="simple"><text fill="#0000FF" font-family="sans-serif" font-size="13" lengthAdjust="spacingAndGlyphs" text-decoration="underline" textLength="65" x="638" y="339.2305">Article API</text><line style="stroke: #0000FF; stroke-width: 1.0;" x1="638" x2="703" y1="341.2305" y2="341.2305"/></a><polygon fill="#A80036" points="346.5,372.9727,336.5,376.9727,346.5,380.9727,342.5,376.9727" style="stroke: #A80036; stroke-width: 1.0;"/><line style="stroke: #A80036; stroke-width: 1.0; stroke-dasharray: 2.0,2.0;" x1="340.5" x2="626.5" y1="376.9727" y2="376.9727"/><text fill="#000000" font-family="sans-serif" font-size="13" lengthAdjust="spacingAndGlyphs" textLength="113" x="352.5" y="372.541">Present the article</text><polygon fill="#A80036" points="323.5,409.2832,333.5,413.2832,323.5,417.2832,327.5,413.2832" style="stroke: #A80036; stroke-width: 1.0;"/><line style="stroke: #A80036; stroke-width: 1.0;" x1="41.5" x2="329.5" y1="413.2832" y2="413.2832"/><text fill="#000000" font-family="sans-serif" font-size="13" lengthAdjust="spacingAndGlyphs" textLength="98" x="48.5" y="408.8516">Type new query</text><rect fill="none" height="98.9316" style="stroke: #000000; stroke-width: 2.0;" width="486" x="302.5" y="428.5938"/><polygon fill="#EEEEEE" points="302.5,428.5938,364.5,428.5938,364.5,435.5938,354.5,445.5938,302.5,445.5938,302.5,428.5938" style="stroke: #000000; stroke-width: 2.0;"/><text fill="#000000" font-family="sans-serif" font-size="13" font-weight="bold" lengthAdjust="spacingAndGlyphs" textLength="17" x="317.5" y="442.1621">alt</text><text fill="#000000" font-family="sans-serif" font-size="11" font-weight="bold" lengthAdjust="spacingAndGlyphs" textLength="84" x="379.5" y="441.2285">[No Session Id]</text><polygon fill="#A80036" points="615.5,467.9043,625.5,471.9043,615.5,475.9043,619.5,471.9043" style="stroke: #A80036; stroke-width: 1.0;"/><line style="stroke: #A80036; stroke-width: 1.0;" x1="335.5" x2="621.5" y1="471.9043" y2="471.9043"/><text fill="#000000" font-family="sans-serif" font-size="13" lengthAdjust="spacingAndGlyphs" textLength="92" x="342.5" y="467.4727">Create session</text><polygon fill="#FBFB77" filter="url(#f13nz3ho0ih935)" points="632,450.9043,632,475.9043,769,475.9043,769,460.9043,759,450.9043,632,450.9043" style="stroke: #A80036; stroke-width: 1.0;"/><line style="stroke: #A80036; stroke-width: 1.0;" x1="759" x2="759" y1="450.9043" y2="460.9043"/><line style="stroke: #A80036; stroke-width: 1.0;" x1="769" x2="759" y1="460.9043" y2="460.9043"/><a target="_top" xlink:actuate="onRequest" xlink:href="https://github.com/nanorepsdk/API-Doumentation/wiki/Create-Session" xlink:show="new" xlink:title="https://github.com/nanorepsdk/API-Doumentation/wiki/Create-Session" xlink:type="simple"><text fill="#0000FF" font-family="sans-serif" font-size="13" lengthAdjust="spacingAndGlyphs" text-decoration="underline" textLength="116" x="638" y="468.4727">Create Session API</text><line style="stroke: #0000FF; stroke-width: 1.0;" x1="638" x2="754" y1="470.4727" y2="470.4727"/></a><line style="stroke: #A80036; stroke-width: 1.0;" x1="335.5" x2="377.5" y1="506.5254" y2="506.5254"/><line style="stroke: #A80036; stroke-width: 1.0;" x1="377.5" x2="377.5" y1="506.5254" y2="519.5254"/><line style="stroke: #A80036; stroke-width: 1.0;" x1="336.5" x2="377.5" y1="519.5254" y2="519.5254"/><polygon fill="#A80036" points="346.5,515.5254,336.5,519.5254,346.5,523.5254,342.5,519.5254" style="stroke: #A80036; stroke-width: 1.0;"/><text fill="#000000" font-family="sans-serif" font-size="13" lengthAdjust="spacingAndGlyphs" textLength="65" x="342.5" y="501.7832">Keep Alive</text><polygon fill="#FBFB77" filter="url(#f13nz3ho0ih935)" points="419,491.7148,419,516.7148,529,516.7148,529,501.7148,519,491.7148,419,491.7148" style="stroke: #A80036; stroke-width: 1.0;"/><line style="stroke: #A80036; stroke-width: 1.0;" x1="519" x2="519" y1="491.7148" y2="501.7148"/><line style="stroke: #A80036; stroke-width: 1.0;" x1="529" x2="519" y1="501.7148" y2="501.7148"/><a target="_top" xlink:actuate="onRequest" xlink:href="https://github.com/nanorepsdk/API-Doumentation/wiki/Keep-Alive" xlink:show="new" xlink:title="https://github.com/nanorepsdk/API-Doumentation/wiki/Keep-Alive" xlink:type="simple"><text fill="#0000FF" font-family="sans-serif" font-size="13" lengthAdjust="spacingAndGlyphs" text-decoration="underline" textLength="89" x="425" y="509.2832">Keep Alive API</text><line style="stroke: #0000FF; stroke-width: 1.0;" x1="425" x2="514" y1="511.2832" y2="511.2832"/></a><polygon fill="#A80036" points="346.5,551.5254,336.5,555.5254,346.5,559.5254,342.5,555.5254" style="stroke: #A80036; stroke-width: 1.0;"/><line style="stroke: #A80036; stroke-width: 1.0; stroke-dasharray: 2.0,2.0;" x1="340.5" x2="626.5" y1="555.5254" y2="555.5254"/><text fill="#000000" font-family="sans-serif" font-size="13" lengthAdjust="spacingAndGlyphs" textLength="255" x="352.5" y="551.0938">Session has created and got a session id</text><polygon fill="#A80036" points="615.5,585.8359,625.5,589.8359,615.5,593.8359,619.5,589.8359" style="stroke: #A80036; stroke-width: 1.0;"/><line style="stroke: #A80036; stroke-width: 1.0;" x1="335.5" x2="621.5" y1="589.8359" y2="589.8359"/><text fill="#000000" font-family="sans-serif" font-size="13" lengthAdjust="spacingAndGlyphs" textLength="128" x="342.5" y="585.4043">Fecth auto complete</text><polygon fill="#FBFB77" filter="url(#f13nz3ho0ih935)" points="632,568.8359,632,593.8359,771,593.8359,771,578.8359,761,568.8359,632,568.8359" style="stroke: #A80036; stroke-width: 1.0;"/><line style="stroke: #A80036; stroke-width: 1.0;" x1="761" x2="761" y1="568.8359" y2="578.8359"/><line style="stroke: #A80036; stroke-width: 1.0;" x1="771" x2="761" y1="578.8359" y2="578.8359"/><a target="_top" xlink:actuate="onRequest" xlink:href="https://github.com/nanorepsdk/API-Doumentation/wiki/Auto-Complete" xlink:show="new" xlink:title="https://github.com/nanorepsdk/API-Doumentation/wiki/Auto-Complete" xlink:type="simple"><text fill="#0000FF" font-family="sans-serif" font-size="13" lengthAdjust="spacingAndGlyphs" text-decoration="underline" textLength="118" x="638" y="586.4043">Auto Complete API</text><line style="stroke: #0000FF; stroke-width: 1.0;" x1="638" x2="756" y1="588.4043" y2="588.4043"/></a><polygon fill="#A80036" points="346.5,620.1465,336.5,624.1465,346.5,628.1465,342.5,624.1465" style="stroke: #A80036; stroke-width: 1.0;"/><line style="stroke: #A80036; stroke-width: 1.0; stroke-dasharray: 2.0,2.0;" x1="340.5" x2="626.5" y1="624.1465" y2="624.1465"/><text fill="#000000" font-family="sans-serif" font-size="13" lengthAdjust="spacingAndGlyphs" textLength="140" x="352.5" y="619.7148">Present auto complete</text><polygon fill="#A80036" points="323.5,649.457,333.5,653.457,323.5,657.457,327.5,653.457" style="stroke: #A80036; stroke-width: 1.0;"/><line style="stroke: #A80036; stroke-width: 1.0;" x1="41.5" x2="329.5" y1="653.457" y2="653.457"/><text fill="#000000" font-family="sans-serif" font-size="13" lengthAdjust="spacingAndGlyphs" textLength="270" x="48.5" y="649.0254">Selecte a query from the auto complete list</text><polygon fill="#A80036" points="615.5,683.7676,625.5,687.7676,615.5,691.7676,619.5,687.7676" style="stroke: #A80036; stroke-width: 1.0;"/><line style="stroke: #A80036; stroke-width: 1.0;" x1="335.5" x2="621.5" y1="687.7676" y2="687.7676"/><text fill="#000000" font-family="sans-serif" font-size="13" lengthAdjust="spacingAndGlyphs" textLength="160" x="342.5" y="683.3359">Search the selected query</text><polygon fill="#FBFB77" filter="url(#f13nz3ho0ih935)" points="632,666.7676,632,691.7676,718,691.7676,718,676.7676,708,666.7676,632,666.7676" style="stroke: #A80036; stroke-width: 1.0;"/><line style="stroke: #A80036; stroke-width: 1.0;" x1="708" x2="708" y1="666.7676" y2="676.7676"/><line style="stroke: #A80036; stroke-width: 1.0;" x1="718" x2="708" y1="676.7676" y2="676.7676"/><a target="_top" xlink:actuate="onRequest" xlink:href="https://github.com/nanorepsdk/API-Doumentation/wiki/Search" xlink:show="new" xlink:title="https://github.com/nanorepsdk/API-Doumentation/wiki/Search" xlink:type="simple"><text fill="#0000FF" font-family="sans-serif" font-size="13" lengthAdjust="spacingAndGlyphs" text-decoration="underline" textLength="65" x="638" y="684.3359">Search API</text><line style="stroke: #0000FF; stroke-width: 1.0;" x1="638" x2="703" y1="686.3359" y2="686.3359"/></a><polygon fill="#A80036" points="346.5,723.0781,336.5,727.0781,346.5,731.0781,342.5,727.0781" style="stroke: #A80036; stroke-width: 1.0;"/><line style="stroke: #A80036; stroke-width: 1.0; stroke-dasharray: 2.0,2.0;" x1="340.5" x2="626.5" y1="727.0781" y2="727.0781"/><text fill="#000000" font-family="sans-serif" font-size="13" lengthAdjust="spacingAndGlyphs" textLength="113" x="352.5" y="722.6465">Present the article</text><polygon fill="#FBFB77" filter="url(#f13nz3ho0ih935)" points="632,706.0781,632,731.0781,718,731.0781,718,716.0781,708,706.0781,632,706.0781" style="stroke: #A80036; stroke-width: 1.0;"/><line style="stroke: #A80036; stroke-width: 1.0;" x1="708" x2="708" y1="706.0781" y2="716.0781"/><line style="stroke: #A80036; stroke-width: 1.0;" x1="718" x2="708" y1="716.0781" y2="716.0781"/><a target="_top" xlink:actuate="onRequest" xlink:href="https://github.com/nanorepsdk/API-Doumentation/wiki/Article" xlink:show="new" xlink:title="https://github.com/nanorepsdk/API-Doumentation/wiki/Article" xlink:type="simple"><text fill="#0000FF" font-family="sans-serif" font-size="13" lengthAdjust="spacingAndGlyphs" text-decoration="underline" textLength="65" x="638" y="723.6465">Article API</text><line style="stroke: #0000FF; stroke-width: 1.0;" x1="638" x2="703" y1="725.6465" y2="725.6465"/></a><!--
@startuml API Doumentation

actor User
participant App
participant Nanorep

group Session Less
    User -> App: First launch and select a topic (Label)
    App -> Nanorep: Fetch configuration
    note right
        [[https://github.com/nanorepsdk/API-Doumentation/wiki/Configuration Configuration API]]
    end note
    Nanorep - -> App: Set the UI according to the configuration
    App -> Nanorep: Fetch FAQs according to the label selected
    note right
        [[https://github.com/nanorepsdk/API-Doumentation/wiki/FAQ-For-Label FAQ For Label API]]
    end note
    Nanorep - -> App: Presnt FAQs

    User -> App: Select FAQ
    App -> Nanorep: Fetch FAQ article
    note right
        [[https://github.com/nanorepsdk/API-Doumentation/wiki/Article Article API]]
    end note
    Nanorep - -> App: Present the article
end

User -> App: Type new query
alt No Session Id
    App -> Nanorep: Create session
    note right
        [[https://github.com/nanorepsdk/API-Doumentation/wiki/Create-Session Create Session API]]
    end note
    App -> App: Keep Alive
    note right
        [[https://github.com/nanorepsdk/API-Doumentation/wiki/Keep-Alive Keep Alive API]]
    end note
end
Nanorep - -> App: Session has created and got a session id
App -> Nanorep: Fecth auto complete
note right
    [[https://github.com/nanorepsdk/API-Doumentation/wiki/Auto-Complete Auto Complete API]]
end note
Nanorep - -> App: Present auto complete

User -> App: Selecte a query from the auto complete list
App -> Nanorep: Search the selected query
note right
    [[https://github.com/nanorepsdk/API-Doumentation/wiki/Search Search API]]
end note
Nanorep - -> App: Present the article
note right
    [[https://github.com/nanorepsdk/API-Doumentation/wiki/Article Article API]]
end note
@enduml

PlantUML version 1.2017.20(Mon Dec 11 18:57:05 IST 2017)
(GPL source distribution)
Java Runtime: Java(TM) SE Runtime Environment
JVM: Java HotSpot(TM) 64-Bit Server VM
Java Version: 1.8.0_152-b16
Operating System: Mac OS X
OS Version: 10.12.6
Default Encoding: UTF-8
Language: en
Country: IL
--></g></svg>